<?xml version="1.0" encoding="UTF-8"?>
<svg id="_レイヤー_2" data-name="レイヤー 2" xmlns="http://www.w3.org/2000/svg" viewBox="0 0 48.13 62.56">
  <defs>
    <style>
      .cls-1 {
        fill: #e13639;
      }

      .cls-2 {
        fill: #4e251e;
      }

      .cls-3 {
        fill: #3a722b;
      }

      .cls-4 {
        fill: #f97777;
      }

      .cls-5 {
        fill: #d3171a;
      }

      .cls-6 {
        fill: #693e38;
      }

      .cls-7 {
        fill: #67a64a;
      }

      .cls-8 {
        fill: #98c96b;
      }
    </style>
  </defs>
  <g id="_レイヤー_1-2" data-name="レイヤー 1">
    <g id="_生成オブジェクト" data-name="生成オブジェクト">
      <path class="cls-5" d="M38.18,59.22c-2.43,2.13-5.19,3.58-8.51,3.32-1.99-.16-4.23-1.28-6.2-1.13-1.31.1-3.06.88-4.45,1.05-3.71.45-6.31-.88-9.03-3.23-.15-.13-.36-.37-.52-.52.19-.53-.36-.95-.7-1.4,6.19,3.01,13.85,2.79,20.21.35,11.64-4.46,13.34-20.97,10.95-31.55-.48-2.14-2.25-7.49-4.58-8.16-.46-.13-1.06.06-1.35-.26,20.81-.39,15.47,31.64,4.19,41.55Z"/>
      <path class="cls-4" d="M14.7,17.75l-.09.09c-5.96-.66-11.22,4.72-12.66,10.08-2.69,10.07.7,21.32,6.81,29.37.34.45.89.87.7,1.4C-1.49,48.33-6.57,16.79,14.7,17.75Z"/>
      <path class="cls-5" d="M23.43,18.45c.09.89.14,1.91,0,2.79-1.32-.07-2.59-.22-3.84-.7s-4.13-2.61-4.98-2.71l.09-.09c2.91.13,5.83.81,8.73.7Z"/>
      <path class="cls-5" d="M33.12,17.75l.13.17c-1.66.57-3.02,1.98-4.67,2.62-1.29.49-2.65.65-4.02.7.04-.88.18-1.83.17-2.71,2.82.11,5.59-.62,8.38-.79Z"/>
      <path class="cls-4" d="M23.43,21.25c.16,0,.2.08.35.09.31,0,.57-.08.79-.09,1.37-.05,2.73-.2,4.02-.7-2.1,2.81-6.83,2.77-8.99,0,1.25.48,2.52.63,3.84.7Z"/>
      <g>
        <path class="cls-1" d="M33.99,17.67c.3.33.9.13,1.35.26,2.33.68,4.1,6.02,4.58,8.16,2.38,10.59.68,27.09-10.95,31.55-6.36,2.44-14.02,2.66-20.21-.35C2.66,49.24-.73,37.99,1.96,27.92c1.43-5.37,6.7-10.74,12.66-10.08.84.09,3.72,2.23,4.98,2.71,2.16,2.77,6.89,2.81,8.99,0,1.65-.63,3.01-2.05,4.67-2.62l-.13-.17c.28-.02.64-.08.87-.09Z"/>
        <path class="cls-4" d="M10.91,21.59c2.65-.37,3.14,2.57,2.66,4.58s-4.9,8.21-6.98,5.32c-1.76-2.44,1.25-9.47,4.32-9.91Z"/>
        <path class="cls-4" d="M6.63,33.99c2.09-.54,2.72,2.78,1.05,3.14-2.19.48-2.64-2.73-1.05-3.14Z"/>
      </g>
      <g>
        <path class="cls-7" d="M27.27,13.83c.67-.64,1.33-1.22,2.01-1.83l5.72,1.57-5.54-1.75c.87-.78,1.72-1.52,2.62-2.27l5.89.87-5.72-1.05c1.1-.91,2.18-1.84,3.32-2.71l5.02.7-4.76-.87c1.12-.84,2.24-1.65,3.4-2.44l3.88.09c.14-.11-.12-.25-.17-.26-.68-.19-2.3.17-3.1-.17.44-.29,3.19-1.95,3.23-2.14.18-.88-2.23.73-2.53.92l.31-2.09-.57,2.27c-.73.46-1.38,1.06-2.18,1.4.15-.57.02-2.05.04-2.71l-.22,2.88c-.46.58-2.15,1.47-2.79,2.01.28-.71.05-2.92.04-3.75l-.22,3.93c-.56.75-2.33,1.72-3.06,2.44l-.13-4.63-.04,4.8c-.45.67-2.05,1.57-2.62,2.27.04-.22-.34-4.21-.44-4.41-.05-.1-.12.05-.17.09l.52,4.41c-.22.38-1.66,1.5-2.09,1.92-.97-2.69.03-5.45,1.57-7.68l3.8-3.06,3.36-1.75c3.05-.78,6.19-1.01,9.34-.65-1.16,4.75-3.52,10.85-7.99,13.4-2.76,1.57-7.04,2.27-9.73.26Z"/>
        <path class="cls-8" d="M39.84,3.7c-.19.12-.43.22-.61.35-1.16.79-2.28,1.6-3.4,2.44-.08.06-.18.11-.26.17-1.14.86-2.22,1.79-3.32,2.71-.07.06-.12.13-.17.17-.9.75-1.75,1.49-2.62,2.27-.07.06-.12.12-.17.17-.68.62-1.34,1.19-2.01,1.83-.86.82-1.69,1.71-2.62,2.44-.01-.18-.07-.42-.09-.61.85-.72,1.57-1.58,2.36-2.36.43-.42,1.87-1.54,2.09-1.92,0,0,.06.03.09-.09.57-.7,2.17-1.6,2.62-2.27,0-.01.19-.07.17-.17.73-.72,2.49-1.69,3.06-2.44.01-.02.12-.03.17-.17.64-.54,2.34-1.42,2.79-2.01.02-.02.14-.04.17-.17.8-.34,1.46-.94,2.18-1.4.09-.06.17-.12.26-.17.3-.18,2.71-1.79,2.53-.92-.04.19-2.79,1.85-3.23,2.14Z"/>
        <g>
          <path class="cls-2" d="M24.57,15.66c.02.2.07.44.09.61.05.71.09,1.56.09,2.27,0,.88-.13,1.83-.17,2.71-.22,0-.48.09-.79.09.04-4.32.32-10.44-4.1-12.74,1.11-1.66,2.14-.4,2.97.83,1.15,1.7,1.72,4.21,1.92,6.24Z"/>
          <path class="cls-6" d="M23.78,21.33c-.15,0-.19-.08-.35-.09.14-.89.09-1.91,0-2.79-.25-2.38-1.09-5.37-2.53-7.29-.24-.32-1.64-1.63-1.66-1.75-.05-.26.3-.63.44-.83,4.42,2.31,4.15,8.43,4.1,12.74Z"/>
        </g>
        <path class="cls-3" d="M29.28,11.99c.06-.05.11-.12.17-.17l5.54,1.75-5.72-1.57Z"/>
        <path class="cls-3" d="M32.07,9.55c.05-.05.1-.12.17-.17l5.72,1.05-5.89-.87Z"/>
        <path class="cls-3" d="M35.57,6.67c.08-.06.18-.12.26-.17l4.76.87-5.02-.7Z"/>
        <path class="cls-3" d="M39.23,4.05c.18-.13.43-.22.61-.35.79.34,2.41-.02,3.1.17.05.02.32.15.17.26l-3.88-.09Z"/>
        <path class="cls-3" d="M31.9,8.85c.02.1-.17.16-.17.17l.04-4.8.13,4.63Z"/>
        <path class="cls-3" d="M35.13,6.23c-.05.14-.16.16-.17.17l.22-3.93c0,.84.23,3.04-.04,3.75Z"/>
        <path class="cls-3" d="M29.11,11.29c-.02.12-.08.08-.09.09l-.52-4.41c.05-.04.13-.18.17-.09.1.2.48,4.19.44,4.41Z"/>
        <path class="cls-3" d="M38.1,4.05c-.04.14-.16.15-.17.17l.22-2.88c-.02.65.11,2.14-.04,2.71Z"/>
        <path class="cls-3" d="M40.54,2.48c-.09.06-.17.12-.26.17l.57-2.27-.31,2.09Z"/>
      </g>
    </g>
  </g>
</svg>
